<?xml version="1.0" encoding="utf-8"?>
<!-- Generator: Adobe Illustrator 25.2.1, SVG Export Plug-In . SVG Version: 6.00 Build 0)  -->
<svg version="1.1" id="Warstwa_1" xmlns="http://www.w3.org/2000/svg" xmlns:xlink="http://www.w3.org/1999/xlink" x="0px" y="0px"
	 viewBox="0 0 530 190" style="enable-background:new 0 0 530 190;" xml:space="preserve">
<style type="text/css">
	.st0{fill:#FFCB00;stroke:#3B5CA8;stroke-width:9;stroke-miterlimit:10;}
</style>
<g>
	<path class="st0" d="M31.1,52.3c4.5-1.5,8.8-2.9,12.8-4.2c4-1.3,8.2-2.5,12.6-3.6c4.4-1.1,8.6-2,12.7-2.7c3.1-0.5,6.3-0.8,9.5-0.8
		c5.4,0,9,0.1,10.7,0.4c2.5,0.5,5,1.3,7.2,2.4c2.3,1.1,4.3,2.5,6.1,4.4c1.8,1.8,3.2,4,4.4,6.4c0.4,1,0.7,2.1,0.7,3.2
		c0,4.2-2.3,9.4-6.9,15.5c-4.6,6.1-9.2,11.5-13.8,16.1c-4.6,4.6-8.1,7.8-10.4,9.8l10.1,35.4L72,145.2L46.2,71.6
		c-0.1,0-0.4,0.4-1.1,1.1c-0.6,0.7-1.5,1.6-2.5,2.8c-1,1.1-1.7,1.8-1.9,2.1c-0.1,0-0.5-0.8-1.1-2.4c-0.6-1.6-1.4-3.8-2.5-6.7
		c-1-2.9-2.2-6-3.5-9.5C32.4,55.4,31.5,53.2,31.1,52.3z M67.4,67.9L72,84.5c2.3-2.4,5.2-5.6,8.6-9.7c3.4-4.1,5.2-7,5.2-8.9
		c0-0.7-0.3-1.1-0.9-1.2c-1.7-0.4-3.4-0.6-5-0.6C75,64.2,70.8,65.4,67.4,67.9z"/>
	<path class="st0" d="M149.8,80.7c2.7,1.4,4.8,3.3,6.5,5.8c1.7,2.4,2.9,5.1,3.6,8.1c0.8,3,1.2,6.1,1.2,9.4c0,2.7-0.2,5.3-0.6,7.8
		c-0.4,2.5-1,4.8-1.8,6.9c-0.7,2.1-1.6,3.9-2.6,5.3c-2.4,3.5-4.9,6.6-7.6,9.1c-2.7,2.5-5.4,4.6-8.3,6.1c-2.8,1.6-5.6,2.7-8.3,3.4
		c-2.8,0.7-5.5,1.1-8.2,1.1c-3.2,0-6.2-0.5-9.1-1.5c-2.9-1-5.3-2.3-7.3-3.9c-3.3-2.8-5.9-6.5-7.8-11.2c-1.9-4.7-2.8-9.7-2.8-14.9
		c0-9,2.6-16.3,7.8-21.8c4.5-4.8,9.1-8.3,13.8-10.8c4.8-2.4,9.6-3.6,14.6-3.6c2.9,0,5.7,0.4,8.4,1.1
		C144.1,77.9,146.9,79.1,149.8,80.7z M146.5,90.2c-0.6,2.8-2,5.4-4.1,7.5c-2.1,2.2-4.2,3.3-6.2,3.3c-1,0-1.9-0.3-2.7-0.8
		c-1.1-0.9-1.7-2.5-1.7-4.7c0-1.7,0.6-3.4,1.7-5.1c1.1-1.7,2.9-3,5.4-4c-2.5,0-4.9,0.5-7.2,1.4c-2.3,0.9-4.3,2.1-5.9,3.6
		c-1.6,1.5-3,3.1-4,5c-1,1.9-1.5,3.7-1.5,5.6c0,3.5,1.6,6.3,4.8,8.3c3,1.9,5.8,2.9,8.5,2.9c2.7,0,5-0.9,7.1-2.7
		c2.1-1.8,3.6-4.1,4.7-6.9c1.1-2.8,1.6-5.5,1.6-8.3C147.2,93.5,147,91.7,146.5,90.2z"/>
	<path class="st0" d="M151.8,47.7l28.5-12l4.2,64.9L208,87.7l24.4,3.6l-31.8,24.4l29.9,22.6l1.3,22.5l-44.1-31.7l1.4,27.6l-26.7,0.5
		l-5.1-97.5l-8.3,1.9L151.8,47.7z"/>
	<path class="st0" d="M271.4,110.5l13.5,16.3c-1.1,3.1-3.7,6-7.7,8.6c-4.1,2.6-8.9,4.7-14.5,6.2c-5.6,1.5-11.2,2.3-16.8,2.3
		c-4.9,0-9.3-0.7-13.2-2c-3.9-1.3-6.9-3.3-9-6c-3.6-4.6-5.4-10.4-5.4-17.5c0-5.6,1-11.1,3.1-16.6c2-5.4,4.2-9.3,6.5-11.4
		c2.7-2.6,5.7-4.7,8.9-6.5c3.2-1.7,6.5-3,10-3.9c3.4-0.9,7-1.3,10.6-1.3c4.8,0,9.3,0.8,13.6,2.3c4.3,1.5,8,3.7,11.3,6.6l-30.8,36.8
		c2.7,0,5.3-0.6,7.8-1.7c2.5-1.1,4.7-2.8,6.8-4.9C268,115.8,269.8,113.3,271.4,110.5z M255.9,97.4c-1.8-0.9-3.7-1.4-5.6-1.4
		c-2,0-4,0.4-5.9,1.2c-1.9,0.8-3.2,1.8-4,2.9c-2.3,3-3.5,6.3-3.5,9.9c0,1.3,0.1,2.6,0.4,3.8c0.3,1.2,0.7,2.8,1.3,4.9L255.9,97.4z"/>
	<path class="st0" d="M313.9,32l23.5-10.6l1.4,76c0.3,1.9,0.4,4.2,0.4,6.6c0,2.2-0.1,3.8-0.2,4.8l0.7,34.4l-25.3,1.3v-3.4
		c-4.1,1.7-8.3,2.5-12.5,2.5c-3.2,0-6.2-0.5-9.1-1.5c-2.8-1-5.3-2.3-7.3-3.9c-3.3-2.8-5.9-6.5-7.8-11.2c-1.9-4.7-2.8-9.7-2.8-14.9
		c0-9,2.6-16.3,7.8-21.8c4.5-4.7,9.1-8.3,13.9-10.7c4.8-2.4,9.6-3.6,14.6-3.6c1.4,0,2.4,0,3.1,0.1L313.9,32z M314.4,86.6
		c-2.1,0.3-4.1,0.9-6.1,2c-2,1-3.7,2.3-5.1,3.7c-1.4,1.4-2.5,3-3.3,4.7c-0.8,1.7-1.2,3.4-1.2,5c0,3.4,1.6,6.2,4.8,8.3
		c2.8,1.9,5.7,2.9,8.6,2.9c0.6,0,1.3-0.1,2.3-0.2v-12c-1,0-1.9-0.3-2.7-0.8c-1.1-0.9-1.7-2.6-1.7-5.2
		C310.1,91.3,311.5,88.5,314.4,86.6z"/>
	<path class="st0" d="M386.4,110.5l13.5,16.3c-1.1,3.1-3.7,6-7.7,8.6c-4.1,2.6-8.9,4.7-14.5,6.2c-5.6,1.5-11.2,2.3-16.8,2.3
		c-4.9,0-9.3-0.7-13.2-2c-3.9-1.3-6.9-3.3-9-6c-3.6-4.6-5.4-10.4-5.4-17.5c0-5.6,1-11.1,3.1-16.6c2-5.4,4.2-9.3,6.5-11.4
		c2.7-2.6,5.7-4.7,8.9-6.5c3.2-1.7,6.5-3,10-3.9c3.4-0.9,7-1.3,10.6-1.3c4.8,0,9.3,0.8,13.6,2.3c4.3,1.5,8,3.7,11.3,6.6l-30.8,36.8
		c2.7,0,5.3-0.6,7.8-1.7c2.5-1.1,4.7-2.8,6.8-4.9C383,115.8,384.8,113.3,386.4,110.5z M370.9,97.4c-1.8-0.9-3.7-1.4-5.6-1.4
		c-2,0-4,0.4-5.9,1.2c-1.9,0.8-3.2,1.8-4,2.9c-2.3,3-3.5,6.3-3.5,9.9c0,1.3,0.1,2.6,0.4,3.8c0.3,1.2,0.7,2.8,1.3,4.9L370.9,97.4z"/>
	<path class="st0" d="M432.4,130.9l-13.6,17.6l-29,0.9l28.1-37.1l-31.7-41l30.8,1.3l15.4,20.4l15.4-20.4l30.8-1.3l-31.7,41
		l28.1,37.1l-29-0.9L432.4,130.9z"/>
</g>
<g>
</g>
<g>
</g>
<g>
</g>
<g>
</g>
<g>
</g>
<g>
</g>
<g>
</g>
<g>
</g>
<g>
</g>
<g>
</g>
<g>
</g>
<g>
</g>
<g>
</g>
<g>
</g>
<g>
</g>
</svg>
