<?xml version="1.0" encoding="utf-8"?>
<!-- Generator: Adobe Illustrator 25.2.1, SVG Export Plug-In . SVG Version: 6.00 Build 0)  -->
<svg version="1.1" id="Warstwa_1" xmlns="http://www.w3.org/2000/svg" xmlns:xlink="http://www.w3.org/1999/xlink" x="0px" y="0px"
	 viewBox="0 0 393 399" style="enable-background:new 0 0 393 399;" xml:space="preserve">
<style type="text/css">
	.st0{fill:#CD0921;}
	.st1{fill:none;stroke:#000000;stroke-width:11;stroke-miterlimit:10;}
	.st2{fill:none;stroke:#000000;stroke-width:3;stroke-miterlimit:10;}
</style>
<path class="st0" d="M193.5,12.7c-96.2,0-174.2,78-174.2,174.2c0,5.4,0.3,10.8,0.7,16.1c3.7-6.2,11.3-7.5,18.3-7.9
	c7.8-0.4,15.7-0.2,23.5,0.2c15.9,0.7,31.6,1.8,47.5,0.9c7.5-0.4,15-1,22.5-0.7c8.1,0.3,17.1,0.9,24,5.6c0.2,0.2,0.4,0.3,0.7,0.5
	c-0.2-0.8-0.5-1.6-0.7-2.4c-4.9-6.1-7.8-13.9-5.6-21.8c1.7-6.1,5.9-9.4,10.6-12.5c1.5-2.9,3.4-5.6,5.7-7.7c1.5-1.4,3.2-2.6,4.9-3.6
	c1-2.1,2.7-3.9,5-5.1c6.5-3.4,12.9-5,19.6-3.3c2.1-2.2,5-3.6,8.9-3.6c7.4,0,11.5,5.1,12.4,10.8c9.4,4.3,15.7,12.8,19.4,22.4
	c2.6,6.8,4,15,2.9,22.6c2.5-0.1,5-0.1,7.5-0.1c15.2-0.2,30.2-1,45.3-2.4c13.1-1.2,26.3-1.5,39.3-3c10.4-1.3,21.7-3.3,31.9,0
	c1.5,0.5,2.8,1,4.1,1.6c0.1-2.1,0.1-4.3,0.1-6.4C367.7,90.7,289.7,12.7,193.5,12.7z"/>
<circle class="st1" cx="195.1" cy="186.9" r="174.2"/>
<circle class="st1" cx="194" cy="187" r="45.5"/>
<circle class="st2" cx="193.8" cy="186.8" r="22.7"/>
<path d="M152.4,193.4c-3.9-4.1-6-9.9-5.7-15.4H21v22h132.1C152.3,197.9,152.1,195.7,152.4,193.4z"/>
<path d="M241.1,178c2.5,6.7,2.2,15.4-0.4,22H369v-22H241.1z"/>
<g>
</g>
<g>
</g>
<g>
</g>
<g>
</g>
<g>
</g>
<g>
</g>
<g>
</g>
<g>
</g>
<g>
</g>
<g>
</g>
<g>
</g>
<g>
</g>
<g>
</g>
<g>
</g>
<g>
</g>
</svg>
